# Tiled2Unity generated file. Do not modify by hand.
# Wavefront file for 'test_area_mesh_0003.obj'

# Vertices (Count = 144)
v -720 -512 0
v -736 -512 0
v -736 -496 0
v -720 -496 0
v -704 -512 0
v -720 -512 0
v -720 -496 0
v -704 -496 0
v -688 -512 0
v -704 -512 0
v -704 -496 0
v -688 -496 0
v -720 -528 0
v -736 -528 0
v -736 -512 0
v -720 -512 0
v -704 -528 0
v -720 -528 0
v -720 -512 0
v -704 -512 0
v -688 -528 0
v -704 -528 0
v -704 -512 0
v -688 -512 0
v -496 -528 0
v -512 -528 0
v -512 -512 0
v -496 -512 0
v -720 -544 0
v -736 -544 0
v -736 -528 0
v -720 -528 0
v -704 -544 0
v -720 -544 0
v -720 -528 0
v -704 -528 0
v -688 -544 0
v -704 -544 0
v -704 -528 0
v -688 -528 0
v -496 -544 0
v -512 -544 0
v -512 -528 0
v -496 -528 0
v -720 -560 0
v -736 -560 0
v -736 -544 0
v -720 -544 0
v -704 -560 0
v -720 -560 0
v -720 -544 0
v -704 -544 0
v -688 -560 0
v -704 -560 0
v -704 -544 0
v -688 -544 0
v -720 -576 0
v -736 -576 0
v -736 -560 0
v -720 -560 0
v -704 -576 0
v -720 -576 0
v -720 -560 0
v -704 -560 0
v -688 -576 0
v -704 -576 0
v -704 -560 0
v -688 -560 0
v -608 -576 0
v -624 -576 0
v -624 -560 0
v -608 -560 0
v -560 -576 0
v -576 -576 0
v -576 -560 0
v -560 -560 0
v -608 -592 0
v -624 -592 0
v -624 -576 0
v -608 -576 0
v -528 -592 0
v -544 -592 0
v -544 -576 0
v -528 -576 0
v -560 -608 0
v -576 -608 0
v -576 -592 0
v -560 -592 0
v -544 -608 0
v -560 -608 0
v -560 -592 0
v -544 -592 0
v -528 -608 0
v -544 -608 0
v -544 -592 0
v -528 -592 0
v -544 -624 0
v -560 -624 0
v -560 -608 0
v -544 -608 0
v -528 -624 0
v -544 -624 0
v -544 -608 0
v -528 -608 0
v -560 -640 0
v -576 -640 0
v -576 -624 0
v -560 -624 0
v -688 -656 0
v -704 -656 0
v -704 -640 0
v -688 -640 0
v -560 -656 0
v -576 -656 0
v -576 -640 0
v -560 -640 0
v -688 -672 0
v -704 -672 0
v -704 -656 0
v -688 -656 0
v -480 -672 0
v -496 -672 0
v -496 -656 0
v -480 -656 0
v -672 -688 0
v -688 -688 0
v -688 -672 0
v -672 -672 0
v -480 -688 0
v -496 -688 0
v -496 -672 0
v -480 -672 0
v -672 -704 0
v -688 -704 0
v -688 -688 0
v -672 -688 0
v -592 -720 0
v -608 -720 0
v -608 -704 0
v -592 -704 0
v -592 -736 0
v -608 -736 0
v -608 -720 0
v -592 -720 0

# Texture cooridinates (Count = 60)
vt 0.3688017 0.2908745
vt 0.3853306 0.2908745
vt 0.3853306 0.3212928
vt 0.3688017 0.3212928
vt 0.4390496 0.2908745
vt 0.4555785 0.2908745
vt 0.4555785 0.3212928
vt 0.4390496 0.3212928
vt 0.3512397 0.2908745
vt 0.3677686 0.2908745
vt 0.3677686 0.3212928
vt 0.3512397 0.3212928
vt 0.3688017 0.2585551
vt 0.3853306 0.2585551
vt 0.3853306 0.2889734
vt 0.3688017 0.2889734
vt 0.4390496 0.2585551
vt 0.4555785 0.2585551
vt 0.4555785 0.2889734
vt 0.4390496 0.2889734
vt 0.3512397 0.2585551
vt 0.3677686 0.2585551
vt 0.3677686 0.2889734
vt 0.3512397 0.2889734
vt 0.3161157 0.6463878
vt 0.3326446 0.6463878
vt 0.3326446 0.6768061
vt 0.3161157 0.6768061
vt 0.3688017 0.2262357
vt 0.3853306 0.2262357
vt 0.3853306 0.256654
vt 0.3688017 0.256654
vt 0.8956612 0.9372624
vt 0.9121901 0.9372624
vt 0.9121901 0.9676806
vt 0.8956612 0.9676806
vt 0.3512397 0.2262357
vt 0.3677686 0.2262357
vt 0.3677686 0.256654
vt 0.3512397 0.256654
vt 0.3161157 0.6140684
vt 0.3326446 0.6140684
vt 0.3326446 0.6444867
vt 0.3161157 0.6444867
vt 0.3161157 0.2262357
vt 0.3326446 0.2262357
vt 0.3326446 0.256654
vt 0.3161157 0.256654
vt 0.2985537 0.2262357
vt 0.3150826 0.2262357
vt 0.3150826 0.256654
vt 0.2985537 0.256654
vt 0.6322314 0.9372624
vt 0.6487603 0.9372624
vt 0.6487603 0.9676806
vt 0.6322314 0.9676806
vt 0.2634298 0.6787072
vt 0.2799587 0.6787072
vt 0.2799587 0.7091255
vt 0.2634298 0.7091255

# Normal
vn 0 0 -1

# Mesh description
g test_area_mesh_0003

# Faces
f 1/1/1 2/2/1 3/3/1 4/4/1
f 5/5/1 6/6/1 7/7/1 8/8/1
f 9/9/1 10/10/1 11/11/1 12/12/1
f 13/13/1 14/14/1 15/15/1 16/16/1
f 17/17/1 18/18/1 19/19/1 20/20/1
f 21/21/1 22/22/1 23/23/1 24/24/1
f 25/25/1 26/26/1 27/27/1 28/28/1
f 29/29/1 30/30/1 31/31/1 32/32/1
f 33/33/1 34/34/1 35/35/1 36/36/1
f 37/37/1 38/38/1 39/39/1 40/40/1
f 41/41/1 42/42/1 43/43/1 44/44/1
f 45/45/1 46/46/1 47/47/1 48/48/1
f 49/45/1 50/46/1 51/47/1 52/48/1
f 53/49/1 54/50/1 55/51/1 56/52/1
f 57/45/1 58/46/1 59/47/1 60/48/1
f 61/53/1 62/54/1 63/55/1 64/56/1
f 65/45/1 66/46/1 67/47/1 68/48/1
f 69/25/1 70/26/1 71/27/1 72/28/1
f 73/57/1 74/58/1 75/59/1 76/60/1
f 77/41/1 78/42/1 79/43/1 80/44/1
f 81/57/1 82/58/1 83/59/1 84/60/1
f 85/57/1 86/58/1 87/59/1 88/60/1
f 89/57/1 90/58/1 91/59/1 92/60/1
f 93/57/1 94/58/1 95/59/1 96/60/1
f 97/57/1 98/58/1 99/59/1 100/60/1
f 101/57/1 102/58/1 103/59/1 104/60/1
f 105/25/1 106/26/1 107/27/1 108/28/1
f 109/25/1 110/26/1 111/27/1 112/28/1
f 113/41/1 114/42/1 115/43/1 116/44/1
f 117/41/1 118/42/1 119/43/1 120/44/1
f 121/25/1 122/26/1 123/27/1 124/28/1
f 125/25/1 126/26/1 127/27/1 128/28/1
f 129/41/1 130/42/1 131/43/1 132/44/1
f 133/41/1 134/42/1 135/43/1 136/44/1
f 137/25/1 138/26/1 139/27/1 140/28/1
f 141/41/1 142/42/1 143/43/1 144/44/1

