# Tiled2Unity generated file. Do not modify by hand.
# Wavefront file for 'test_area2_mesh_0001.obj'

# Vertices (Count = 324)
v -688 -480 0
v -704 -480 0
v -704 -464 0
v -688 -464 0
v -672 -480 0
v -688 -480 0
v -688 -464 0
v -672 -464 0
v -656 -480 0
v -672 -480 0
v -672 -464 0
v -656 -464 0
v -640 -480 0
v -656 -480 0
v -656 -464 0
v -640 -464 0
v -624 -480 0
v -640 -480 0
v -640 -464 0
v -624 -464 0
v -608 -480 0
v -624 -480 0
v -624 -464 0
v -608 -464 0
v -592 -480 0
v -608 -480 0
v -608 -464 0
v -592 -464 0
v -576 -480 0
v -592 -480 0
v -592 -464 0
v -576 -464 0
v -560 -480 0
v -576 -480 0
v -576 -464 0
v -560 -464 0
v -688 -496 0
v -704 -496 0
v -704 -480 0
v -688 -480 0
v -672 -496 0
v -688 -496 0
v -688 -480 0
v -672 -480 0
v -656 -496 0
v -672 -496 0
v -672 -480 0
v -656 -480 0
v -640 -496 0
v -656 -496 0
v -656 -480 0
v -640 -480 0
v -624 -496 0
v -640 -496 0
v -640 -480 0
v -624 -480 0
v -608 -496 0
v -624 -496 0
v -624 -480 0
v -608 -480 0
v -592 -496 0
v -608 -496 0
v -608 -480 0
v -592 -480 0
v -576 -496 0
v -592 -496 0
v -592 -480 0
v -576 -480 0
v -560 -496 0
v -576 -496 0
v -576 -480 0
v -560 -480 0
v -688 -512 0
v -704 -512 0
v -704 -496 0
v -688 -496 0
v -672 -512 0
v -688 -512 0
v -688 -496 0
v -672 -496 0
v -656 -512 0
v -672 -512 0
v -672 -496 0
v -656 -496 0
v -640 -512 0
v -656 -512 0
v -656 -496 0
v -640 -496 0
v -624 -512 0
v -640 -512 0
v -640 -496 0
v -624 -496 0
v -608 -512 0
v -624 -512 0
v -624 -496 0
v -608 -496 0
v -592 -512 0
v -608 -512 0
v -608 -496 0
v -592 -496 0
v -576 -512 0
v -592 -512 0
v -592 -496 0
v -576 -496 0
v -560 -512 0
v -576 -512 0
v -576 -496 0
v -560 -496 0
v -688 -528 0
v -704 -528 0
v -704 -512 0
v -688 -512 0
v -672 -528 0
v -688 -528 0
v -688 -512 0
v -672 -512 0
v -656 -528 0
v -672 -528 0
v -672 -512 0
v -656 -512 0
v -640 -528 0
v -656 -528 0
v -656 -512 0
v -640 -512 0
v -624 -528 0
v -640 -528 0
v -640 -512 0
v -624 -512 0
v -608 -528 0
v -624 -528 0
v -624 -512 0
v -608 -512 0
v -592 -528 0
v -608 -528 0
v -608 -512 0
v -592 -512 0
v -576 -528 0
v -592 -528 0
v -592 -512 0
v -576 -512 0
v -560 -528 0
v -576 -528 0
v -576 -512 0
v -560 -512 0
v -688 -544 0
v -704 -544 0
v -704 -528 0
v -688 -528 0
v -672 -544 0
v -688 -544 0
v -688 -528 0
v -672 -528 0
v -656 -544 0
v -672 -544 0
v -672 -528 0
v -656 -528 0
v -640 -544 0
v -656 -544 0
v -656 -528 0
v -640 -528 0
v -624 -544 0
v -640 -544 0
v -640 -528 0
v -624 -528 0
v -608 -544 0
v -624 -544 0
v -624 -528 0
v -608 -528 0
v -592 -544 0
v -608 -544 0
v -608 -528 0
v -592 -528 0
v -576 -544 0
v -592 -544 0
v -592 -528 0
v -576 -528 0
v -560 -544 0
v -576 -544 0
v -576 -528 0
v -560 -528 0
v -688 -560 0
v -704 -560 0
v -704 -544 0
v -688 -544 0
v -672 -560 0
v -688 -560 0
v -688 -544 0
v -672 -544 0
v -656 -560 0
v -672 -560 0
v -672 -544 0
v -656 -544 0
v -640 -560 0
v -656 -560 0
v -656 -544 0
v -640 -544 0
v -624 -560 0
v -640 -560 0
v -640 -544 0
v -624 -544 0
v -608 -560 0
v -624 -560 0
v -624 -544 0
v -608 -544 0
v -592 -560 0
v -608 -560 0
v -608 -544 0
v -592 -544 0
v -576 -560 0
v -592 -560 0
v -592 -544 0
v -576 -544 0
v -560 -560 0
v -576 -560 0
v -576 -544 0
v -560 -544 0
v -688 -576 0
v -704 -576 0
v -704 -560 0
v -688 -560 0
v -672 -576 0
v -688 -576 0
v -688 -560 0
v -672 -560 0
v -656 -576 0
v -672 -576 0
v -672 -560 0
v -656 -560 0
v -640 -576 0
v -656 -576 0
v -656 -560 0
v -640 -560 0
v -624 -576 0
v -640 -576 0
v -640 -560 0
v -624 -560 0
v -608 -576 0
v -624 -576 0
v -624 -560 0
v -608 -560 0
v -592 -576 0
v -608 -576 0
v -608 -560 0
v -592 -560 0
v -576 -576 0
v -592 -576 0
v -592 -560 0
v -576 -560 0
v -560 -576 0
v -576 -576 0
v -576 -560 0
v -560 -560 0
v -688 -592 0
v -704 -592 0
v -704 -576 0
v -688 -576 0
v -672 -592 0
v -688 -592 0
v -688 -576 0
v -672 -576 0
v -656 -592 0
v -672 -592 0
v -672 -576 0
v -656 -576 0
v -640 -592 0
v -656 -592 0
v -656 -576 0
v -640 -576 0
v -624 -592 0
v -640 -592 0
v -640 -576 0
v -624 -576 0
v -608 -592 0
v -624 -592 0
v -624 -576 0
v -608 -576 0
v -592 -592 0
v -608 -592 0
v -608 -576 0
v -592 -576 0
v -576 -592 0
v -592 -592 0
v -592 -576 0
v -576 -576 0
v -560 -592 0
v -576 -592 0
v -576 -576 0
v -560 -576 0
v -688 -608 0
v -704 -608 0
v -704 -592 0
v -688 -592 0
v -672 -608 0
v -688 -608 0
v -688 -592 0
v -672 -592 0
v -656 -608 0
v -672 -608 0
v -672 -592 0
v -656 -592 0
v -640 -608 0
v -656 -608 0
v -656 -592 0
v -640 -592 0
v -624 -608 0
v -640 -608 0
v -640 -592 0
v -624 -592 0
v -608 -608 0
v -624 -608 0
v -624 -592 0
v -608 -592 0
v -592 -608 0
v -608 -608 0
v -608 -592 0
v -592 -592 0
v -576 -608 0
v -592 -608 0
v -592 -592 0
v -576 -592 0
v -560 -608 0
v -576 -608 0
v -576 -592 0
v -560 -592 0

# Texture cooridinates (Count = 40)
vt 0.4566116 0.2908745
vt 0.4731405 0.2908745
vt 0.4731405 0.3212928
vt 0.4566116 0.3212928
vt 0.4390496 0.2908745
vt 0.4555785 0.2908745
vt 0.4555785 0.3212928
vt 0.4390496 0.3212928
vt 0.4214876 0.2908745
vt 0.4380165 0.2908745
vt 0.4380165 0.3212928
vt 0.4214876 0.3212928
vt 0.4566116 0.2585551
vt 0.4731405 0.2585551
vt 0.4731405 0.2889734
vt 0.4566116 0.2889734
vt 0.4390496 0.2585551
vt 0.4555785 0.2585551
vt 0.4555785 0.2889734
vt 0.4390496 0.2889734
vt 0.4214876 0.2585551
vt 0.4380165 0.2585551
vt 0.4380165 0.2889734
vt 0.4214876 0.2889734
vt 0.4566116 0.2262357
vt 0.4731405 0.2262357
vt 0.4731405 0.256654
vt 0.4566116 0.256654
vt 0.4390496 0.2262357
vt 0.4555785 0.2262357
vt 0.4555785 0.256654
vt 0.4390496 0.256654
vt 0.4214876 0.2262357
vt 0.4380165 0.2262357
vt 0.4380165 0.256654
vt 0.4214876 0.256654
vt 0.3512397 0.1292776
vt 0.3677686 0.1292776
vt 0.3677686 0.1596958
vt 0.3512397 0.1596958

# Normal
vn 0 0 -1

# Mesh description
g test_area2_mesh_0001

# Faces
f 1/1/1 2/2/1 3/3/1 4/4/1
f 5/5/1 6/6/1 7/7/1 8/8/1
f 9/9/1 10/10/1 11/11/1 12/12/1
f 13/1/1 14/2/1 15/3/1 16/4/1
f 17/5/1 18/6/1 19/7/1 20/8/1
f 21/9/1 22/10/1 23/11/1 24/12/1
f 25/1/1 26/2/1 27/3/1 28/4/1
f 29/5/1 30/6/1 31/7/1 32/8/1
f 33/9/1 34/10/1 35/11/1 36/12/1
f 37/13/1 38/14/1 39/15/1 40/16/1
f 41/17/1 42/18/1 43/19/1 44/20/1
f 45/21/1 46/22/1 47/23/1 48/24/1
f 49/13/1 50/14/1 51/15/1 52/16/1
f 53/17/1 54/18/1 55/19/1 56/20/1
f 57/21/1 58/22/1 59/23/1 60/24/1
f 61/13/1 62/14/1 63/15/1 64/16/1
f 65/17/1 66/18/1 67/19/1 68/20/1
f 69/21/1 70/22/1 71/23/1 72/24/1
f 73/25/1 74/26/1 75/27/1 76/28/1
f 77/29/1 78/30/1 79/31/1 80/32/1
f 81/33/1 82/34/1 83/35/1 84/36/1
f 85/25/1 86/26/1 87/27/1 88/28/1
f 89/29/1 90/30/1 91/31/1 92/32/1
f 93/33/1 94/34/1 95/35/1 96/36/1
f 97/25/1 98/26/1 99/27/1 100/28/1
f 101/29/1 102/30/1 103/31/1 104/32/1
f 105/33/1 106/34/1 107/35/1 108/36/1
f 109/1/1 110/2/1 111/3/1 112/4/1
f 113/5/1 114/6/1 115/7/1 116/8/1
f 117/9/1 118/10/1 119/11/1 120/12/1
f 121/1/1 122/2/1 123/3/1 124/4/1
f 125/5/1 126/6/1 127/7/1 128/8/1
f 129/9/1 130/10/1 131/11/1 132/12/1
f 133/1/1 134/2/1 135/3/1 136/4/1
f 137/5/1 138/6/1 139/7/1 140/8/1
f 141/9/1 142/10/1 143/11/1 144/12/1
f 145/13/1 146/14/1 147/15/1 148/16/1
f 149/17/1 150/18/1 151/19/1 152/20/1
f 153/21/1 154/22/1 155/23/1 156/24/1
f 157/13/1 158/14/1 159/15/1 160/16/1
f 161/17/1 162/18/1 163/19/1 164/20/1
f 165/21/1 166/22/1 167/23/1 168/24/1
f 169/13/1 170/14/1 171/15/1 172/16/1
f 173/17/1 174/18/1 175/19/1 176/20/1
f 177/21/1 178/22/1 179/23/1 180/24/1
f 181/25/1 182/26/1 183/27/1 184/28/1
f 185/29/1 186/30/1 187/31/1 188/32/1
f 189/33/1 190/34/1 191/35/1 192/36/1
f 193/25/1 194/26/1 195/27/1 196/28/1
f 197/29/1 198/30/1 199/31/1 200/32/1
f 201/33/1 202/34/1 203/35/1 204/36/1
f 205/25/1 206/26/1 207/27/1 208/28/1
f 209/29/1 210/30/1 211/31/1 212/32/1
f 213/33/1 214/34/1 215/35/1 216/36/1
f 217/1/1 218/2/1 219/3/1 220/4/1
f 221/5/1 222/6/1 223/7/1 224/8/1
f 225/9/1 226/10/1 227/11/1 228/12/1
f 229/1/1 230/2/1 231/3/1 232/4/1
f 233/5/1 234/6/1 235/7/1 236/8/1
f 237/9/1 238/10/1 239/11/1 240/12/1
f 241/1/1 242/2/1 243/3/1 244/4/1
f 245/5/1 246/6/1 247/7/1 248/8/1
f 249/9/1 250/10/1 251/11/1 252/12/1
f 253/13/1 254/14/1 255/15/1 256/16/1
f 257/17/1 258/18/1 259/19/1 260/20/1
f 261/21/1 262/22/1 263/23/1 264/24/1
f 265/13/1 266/14/1 267/15/1 268/16/1
f 269/17/1 270/18/1 271/19/1 272/20/1
f 273/21/1 274/22/1 275/23/1 276/24/1
f 277/13/1 278/14/1 279/15/1 280/16/1
f 281/17/1 282/18/1 283/19/1 284/20/1
f 285/21/1 286/22/1 287/23/1 288/24/1
f 289/25/1 290/26/1 291/27/1 292/28/1
f 293/29/1 294/30/1 295/31/1 296/32/1
f 297/33/1 298/34/1 299/35/1 300/36/1
f 301/25/1 302/26/1 303/27/1 304/28/1
f 305/37/1 306/38/1 307/39/1 308/40/1
f 309/33/1 310/34/1 311/35/1 312/36/1
f 313/25/1 314/26/1 315/27/1 316/28/1
f 317/29/1 318/30/1 319/31/1 320/32/1
f 321/33/1 322/34/1 323/35/1 324/36/1

